Regular.ufo
<glyph name="hsmallmod" format="2">
  <advance width="500" height="1000"/>
  <unicode hex="02B0"/>
  <outline>
    <contour>
      <point x="364" y="340" type="line"/>
      <point x="364" y="324"/>
      <point x="333" y="324"/>
      <point x="307" y="335"/>
      <point x="307" y="349" type="qcurve"/>
      <point x="307" y="350" type="line"/>
      <point x="307" y="354"/>
      <point x="307" y="363" type="qcurve"/>
      <point x="308" y="398" type="line"/>
      <point x="308" y="487" type="line"/>
      <point x="308" y="514"/>
      <point x="295" y="541"/>
      <point x="278" y="541" type="qcurve"/>
      <point x="243" y="541"/>
      <point x="195" y="490"/>
      <point x="194" y="422" type="qcurve"/>
      <point x="194" y="405"/>
      <point x="194" y="393" type="qcurve"/>
      <point x="194" y="385" type="line"/>
      <point x="194" y="371"/>
      <point x="195" y="341" type="qcurve"/>
      <point x="195" y="324"/>
      <point x="164" y="324"/>
      <point x="138" y="335"/>
      <point x="138" y="349" type="qcurve"/>
      <point x="139" y="398" type="line"/>
      <point x="139" y="636" type="line"/>
      <point x="137" y="689" type="line"/>
      <point x="137" y="705"/>
      <point x="168" y="705"/>
      <point x="195" y="694"/>
      <point x="195" y="680" type="qcurve"/>
      <point x="194" y="631" type="line"/>
      <point x="194" y="568" type="line"/>
      <point x="191" y="563"/>
      <point x="247" y="594"/>
      <point x="276" y="594" type="qcurve"/>
      <point x="328" y="594"/>
      <point x="348" y="557" type="qcurve"/>
      <point x="363" y="532"/>
      <point x="363" y="489" type="qcurve"/>
      <point x="363" y="393" type="line"/>
    </contour>
  </outline>
</glyph>
<glyph name="jsmallmod" format="2">
  <advance width="500" height="1000"/>
  <unicode hex="02B2"/>
  <outline>
    <contour>
      <point x="303" y="625" type="qcurve"/>
      <point x="288" y="625"/>
      <point x="269" y="652"/>
      <point x="269" y="665" type="qcurve"/>
      <point x="269" y="678"/>
      <point x="286" y="699"/>
      <point x="303" y="699" type="qcurve"/>
      <point x="318" y="699"/>
      <point x="337" y="671"/>
      <point x="337" y="658" type="qcurve"/>
      <point x="337" y="645"/>
      <point x="319" y="625"/>
    </contour>
    <contour>
      <point x="226" y="242" type="qcurve"/>
      <point x="169" y="242"/>
      <point x="144" y="295" type="qcurve"/>
      <point x="142" y="300" type="line"/>
      <point x="142" y="311"/>
      <point x="160" y="336"/>
      <point x="173" y="336" type="qcurve"/>
      <point x="189" y="336"/>
      <point x="192" y="322" type="qcurve"/>
      <point x="198" y="305"/>
      <point x="212" y="293"/>
      <point x="226" y="293" type="qcurve"/>
      <point x="256" y="293"/>
      <point x="272" y="324" type="qcurve"/>
      <point x="280" y="341"/>
      <point x="280" y="365" type="qcurve"/>
      <point x="280" y="542" type="line"/>
      <point x="268" y="541"/>
      <point x="221" y="541"/>
      <point x="216" y="540" type="qcurve"/>
      <point x="199" y="540"/>
      <point x="189" y="568"/>
      <point x="189" y="577" type="qcurve"/>
      <point x="189" y="595"/>
      <point x="208" y="595" type="qcurve"/>
      <point x="222" y="592"/>
      <point x="240" y="592" type="qcurve"/>
      <point x="290" y="592"/>
      <point x="304" y="597" type="qcurve"/>
      <point x="325" y="597"/>
      <point x="332" y="576" type="qcurve"/>
      <point x="336" y="570"/>
      <point x="336" y="564" type="qcurve"/>
      <point x="336" y="559"/>
      <point x="333" y="552"/>
      <point x="333" y="548" type="qcurve"/>
      <point x="332" y="365" type="line"/>
      <point x="332" y="327"/>
      <point x="305" y="273"/>
      <point x="256" y="242"/>
    </contour>
  </outline>
</glyph>
<glyph name="rsmallmod" format="2">
  <advance width="500" height="1000"/>
  <unicode hex="02B3"/>
  <outline>
    <contour>
      <point x="235" y="569" type="qcurve"/>
      <point x="240" y="575"/>
      <point x="252" y="583" type="qcurve"/>
      <point x="267" y="593"/>
      <point x="291" y="593" type="qcurve"/>
      <point x="313" y="593"/>
      <point x="342" y="582"/>
      <point x="364" y="564"/>
      <point x="364" y="552" type="qcurve"/>
      <point x="364" y="542"/>
      <point x="347" y="517"/>
      <point x="337" y="517" type="qcurve"/>
      <point x="326" y="517"/>
      <point x="320" y="527" type="qcurve"/>
      <point x="317" y="533"/>
      <point x="300" y="540"/>
      <point x="295" y="540" type="qcurve"/>
      <point x="277" y="540"/>
      <point x="262" y="529" type="qcurve"/>
      <point x="239" y="513"/>
      <point x="235" y="472" type="qcurve"/>
      <point x="233" y="454"/>
      <point x="233" y="393" type="qcurve"/>
      <point x="235" y="340" type="line"/>
      <point x="235" y="325"/>
      <point x="216" y="325" type="qcurve"/>
      <point x="205" y="325"/>
      <point x="179" y="335"/>
      <point x="179" y="349" type="qcurve"/>
      <point x="180" y="393" type="line"/>
      <point x="180" y="523" type="line"/>
      <point x="178" y="577" type="line"/>
      <point x="178" y="592"/>
      <point x="197" y="592" type="qcurve"/>
      <point x="208" y="592"/>
      <point x="222" y="587" type="qcurve"/>
      <point x="235" y="581"/>
    </contour>
  </outline>
</glyph>
<glyph name="wsmallmod" format="2">
  <advance width="500" height="1000"/>
  <unicode hex="02B7"/>
  <outline>
    <contour>
      <point x="325" y="321" type="qcurve"/>
      <point x="317" y="321"/>
      <point x="299" y="329"/>
      <point x="289" y="339"/>
      <point x="286" y="354"/>
      <point x="284" y="360" type="qcurve"/>
      <point x="248" y="489" type="line"/>
      <point x="206" y="369" type="line"/>
      <point x="204" y="361"/>
      <point x="201" y="347"/>
      <point x="192" y="321"/>
      <point x="172" y="321" type="qcurve"/>
      <point x="156" y="321"/>
      <point x="144" y="334" type="qcurve"/>
      <point x="139" y="339"/>
      <point x="136" y="350"/>
      <point x="133" y="360" type="qcurve"/>
      <point x="78" y="550" type="line"/>
      <point x="75" y="557"/>
      <point x="70" y="567"/>
      <point x="70" y="571" type="qcurve"/>
      <point x="70" y="589"/>
      <point x="98" y="589" type="qcurve"/>
      <point x="107" y="589"/>
      <point x="130" y="581"/>
      <point x="130" y="569" type="qcurve"/>
      <point x="131" y="565"/>
      <point x="133" y="552"/>
      <point x="135" y="547" type="qcurve"/>
      <point x="169" y="416" type="line"/>
      <point x="212" y="540" type="line"/>
      <point x="214" y="546"/>
      <point x="216" y="562"/>
      <point x="217" y="567" type="qcurve"/>
      <point x="219" y="584"/>
      <point x="239" y="584" type="qcurve"/>
      <point x="252" y="584"/>
      <point x="279" y="575"/>
      <point x="282" y="558"/>
      <point x="283" y="547"/>
      <point x="284" y="543" type="qcurve"/>
      <point x="322" y="415" type="line"/>
      <point x="366" y="547" type="line"/>
      <point x="374" y="579" type="line"/>
      <point x="377" y="592"/>
      <point x="394" y="592" type="qcurve"/>
      <point x="405" y="592"/>
      <point x="430" y="582"/>
      <point x="430" y="567" type="qcurve"/>
      <point x="415" y="530" type="line"/>
      <point x="360" y="369" type="line"/>
      <point x="351" y="340" type="line"/>
      <point x="344" y="321"/>
    </contour>
  </outline>
</glyph>
<glyph name="ysmallmod" format="2">
  <advance width="500" height="1000"/>
  <unicode hex="02B8"/>
  <outline>
    <contour>
      <point x="184" y="248" type="qcurve"/>
      <point x="179" y="248" type="line"/>
      <point x="168" y="248"/>
      <point x="141" y="253"/>
      <point x="127" y="264" type="qcurve"/>
      <point x="121" y="270"/>
      <point x="121" y="279" type="qcurve"/>
      <point x="121" y="288"/>
      <point x="135" y="312"/>
      <point x="146" y="312" type="qcurve"/>
      <point x="155" y="312"/>
      <point x="168" y="299"/>
      <point x="177" y="299" type="qcurve"/>
      <point x="187" y="299"/>
      <point x="198" y="307"/>
      <point x="204" y="321" type="qcurve"/>
      <point x="224" y="363" type="line"/>
      <point x="153" y="524" type="line"/>
      <point x="142" y="547"/>
      <point x="130" y="568"/>
      <point x="130" y="572" type="qcurve"/>
      <point x="130" y="590"/>
      <point x="159" y="590" type="qcurve"/>
      <point x="185" y="590"/>
      <point x="196" y="560"/>
      <point x="253" y="426" type="qcurve"/>
      <point x="316" y="558"/>
      <point x="323" y="582" type="qcurve"/>
      <point x="328" y="592"/>
      <point x="341" y="592" type="qcurve"/>
      <point x="351" y="592"/>
      <point x="375" y="576"/>
      <point x="375" y="566" type="qcurve"/>
      <point x="375" y="558"/>
      <point x="369" y="545"/>
      <point x="358" y="524"/>
      <point x="353" y="515" type="qcurve"/>
      <point x="248" y="295" type="line"/>
      <point x="237" y="272"/>
      <point x="206" y="248"/>
    </contour>
  </outline>
</glyph>
<glyph name="Hmod" format="2">
  <advance width="500" height="1000"/>
  <unicode hex="1D34"/>
  <outline>
    <contour>
      <point x="336" y="514" type="line"/>
      <point x="173" y="505" type="line"/>
      <point x="173" y="392" type="line"/>
      <point x="175" y="339" type="line"/>
      <point x="175" y="324"/>
      <point x="155" y="324" type="qcurve"/>
      <point x="144" y="324"/>
      <point x="117" y="335"/>
      <point x="117" y="348" type="qcurve"/>
      <point x="118" y="393" type="line"/>
      <point x="118" y="500" type="line"/>
      <point x="110" y="503"/>
      <point x="105" y="513" type="qcurve"/>
      <point x="98" y="526"/>
      <point x="98" y="536" type="qcurve"/>
      <point x="98" y="554"/>
      <point x="118" y="554" type="qcurve"/>
      <point x="118" y="634"/>
      <point x="117" y="687" type="qcurve"/>
      <point x="117" y="702"/>
      <point x="136" y="702" type="qcurve"/>
      <point x="148" y="702"/>
      <point x="174" y="692"/>
      <point x="174" y="678" type="qcurve"/>
      <point x="173" y="634" type="line"/>
      <point x="173" y="554" type="line"/>
      <point x="290" y="561" type="line"/>
      <point x="336" y="563" type="line"/>
      <point x="335" y="687" type="line"/>
      <point x="335" y="702"/>
      <point x="354" y="702" type="qcurve"/>
      <point x="366" y="702"/>
      <point x="392" y="692"/>
      <point x="392" y="678" type="qcurve"/>
      <point x="391" y="634" type="line"/>
      <point x="391" y="393" type="line"/>
      <point x="393" y="340" type="line"/>
      <point x="393" y="325"/>
      <point x="373" y="325" type="qcurve"/>
      <point x="362" y="325"/>
      <point x="335" y="335"/>
      <point x="335" y="349" type="qcurve"/>
      <point x="336" y="393" type="line"/>
    </contour>
  </outline>
</glyph>
<glyph name="Imod" format="2">
  <advance width="500" height="1000"/>
  <unicode hex="1D35"/>
  <outline>
    <contour>
      <point x="333" y="327" type="qcurve"/>
      <point x="315" y="330"/>
      <point x="278" y="330" type="qcurve"/>
      <point x="212" y="330"/>
      <point x="180" y="327" type="qcurve"/>
      <point x="165" y="327"/>
      <point x="152" y="353"/>
      <point x="152" y="362" type="qcurve"/>
      <point x="152" y="381"/>
      <point x="170" y="381" type="qcurve"/>
      <point x="221" y="381" type="line"/>
      <point x="222" y="644" type="line"/>
      <point x="206" y="643"/>
      <point x="187" y="640" type="qcurve"/>
      <point x="172" y="640"/>
      <point x="160" y="666"/>
      <point x="160" y="675" type="qcurve"/>
      <point x="160" y="694"/>
      <point x="177" y="694" type="qcurve"/>
      <point x="209" y="693" type="line"/>
      <point x="257" y="693"/>
      <point x="315" y="700" type="qcurve"/>
      <point x="329" y="700"/>
      <point x="341" y="673"/>
      <point x="341" y="664" type="qcurve"/>
      <point x="341" y="645"/>
      <point x="324" y="645" type="qcurve"/>
      <point x="288" y="647" type="line"/>
      <point x="277" y="646" type="line"/>
      <point x="277" y="382" type="line"/>
      <point x="324" y="382" type="line"/>
      <point x="338" y="382"/>
      <point x="350" y="355"/>
      <point x="350" y="346" type="qcurve"/>
      <point x="350" y="327"/>
    </contour>
  </outline>
</glyph>
<glyph name="Jmod" format="2">
  <advance width="500" height="1000"/>
  <unicode hex="1D36"/>
  <outline>
    <contour>
      <point x="230" y="321" type="qcurve"/>
      <point x="204" y="321"/>
      <point x="163" y="341"/>
      <point x="138" y="368"/>
      <point x="125" y="395"/>
      <point x="125" y="402" type="qcurve"/>
      <point x="125" y="410"/>
      <point x="137" y="427"/>
      <point x="154" y="436"/>
      <point x="162" y="436" type="qcurve"/>
      <point x="175" y="436"/>
      <point x="178" y="423" type="qcurve"/>
      <point x="189" y="374"/>
      <point x="229" y="374" type="qcurve"/>
      <point x="274" y="374"/>
      <point x="274" y="430" type="qcurve"/>
      <point x="274" y="634"/>
      <point x="272" y="687" type="qcurve"/>
      <point x="272" y="702"/>
      <point x="292" y="702" type="qcurve"/>
      <point x="303" y="702"/>
      <point x="330" y="692"/>
      <point x="330" y="678" type="qcurve"/>
      <point x="329" y="634" type="line"/>
      <point x="329" y="428" type="line"/>
      <point x="329" y="321"/>
    </contour>
  </outline>
</glyph>
<glyph name="Kmod" format="2">
  <advance width="500" height="1000"/>
  <unicode hex="1D37"/>
  <outline>
    <contour>
      <point x="173" y="324" type="qcurve"/>
      <point x="162" y="324"/>
      <point x="135" y="335"/>
      <point x="135" y="348" type="qcurve"/>
      <point x="136" y="396" type="line"/>
      <point x="136" y="634" type="line"/>
      <point x="134" y="687" type="line"/>
      <point x="134" y="702"/>
      <point x="154" y="702" type="qcurve"/>
      <point x="165" y="702"/>
      <point x="192" y="692"/>
      <point x="192" y="678" type="qcurve"/>
      <point x="191" y="634" type="line"/>
      <point x="191" y="567" type="line"/>
      <point x="230" y="598"/>
      <point x="325" y="687"/>
      <point x="337" y="702"/>
      <point x="349" y="702" type="qcurve"/>
      <point x="360" y="702"/>
      <point x="388" y="686"/>
      <point x="388" y="675" type="qcurve"/>
      <point x="388" y="667"/>
      <point x="374" y="656"/>
      <point x="355" y="640"/>
      <point x="292" y="582"/>
      <point x="235" y="538" type="qcurve"/>
      <point x="350" y="410"/>
      <point x="408" y="361" type="qcurve"/>
      <point x="414" y="358"/>
      <point x="414" y="350" type="qcurve"/>
      <point x="414" y="339"/>
      <point x="386" y="325"/>
      <point x="372" y="325" type="qcurve"/>
      <point x="356" y="325"/>
      <point x="341" y="345"/>
      <point x="330" y="357" type="qcurve"/>
      <point x="239" y="452"/>
      <point x="195" y="504" type="qcurve"/>
      <point x="191" y="501" type="line"/>
      <point x="191" y="395" type="line"/>
      <point x="192" y="339" type="line"/>
      <point x="192" y="324"/>
    </contour>
  </outline>
</glyph>
<glyph name="Lmod" format="2">
  <advance width="500" height="1000"/>
  <unicode hex="1D38"/>
  <outline>
    <contour>
      <point x="186" y="325" type="qcurve"/>
      <point x="169" y="325"/>
      <point x="158" y="344" type="qcurve"/>
      <point x="153" y="352"/>
      <point x="153" y="358" type="qcurve"/>
      <point x="153" y="365"/>
      <point x="157" y="372"/>
      <point x="157" y="375" type="qcurve"/>
      <point x="157" y="634" type="line"/>
      <point x="155" y="687" type="line"/>
      <point x="155" y="702"/>
      <point x="175" y="702" type="qcurve"/>
      <point x="186" y="702"/>
      <point x="214" y="692"/>
      <point x="214" y="678" type="qcurve"/>
      <point x="213" y="634" type="line"/>
      <point x="213" y="380" type="line"/>
      <point x="242" y="382"/>
      <point x="362" y="382" type="qcurve"/>
      <point x="374" y="382"/>
      <point x="388" y="355"/>
      <point x="388" y="345" type="qcurve"/>
      <point x="388" y="327"/>
      <point x="371" y="327" type="qcurve"/>
      <point x="351" y="330"/>
      <point x="320" y="330" type="qcurve"/>
      <point x="205" y="330"/>
    </contour>
  </outline>
</glyph>
<glyph name="Pmod" format="2">
  <advance width="500" height="1000"/>
  <unicode hex="1D3E"/>
  <outline>
    <contour>
      <point x="193" y="533" type="line"/>
      <point x="271" y="539"/>
      <point x="304" y="561" type="qcurve"/>
      <point x="337" y="583"/>
      <point x="337" y="610" type="qcurve"/>
      <point x="337" y="654"/>
      <point x="254" y="654" type="qcurve"/>
      <point x="220" y="654"/>
      <point x="193" y="646" type="qcurve"/>
    </contour>
    <contour>
      <point x="193" y="489" type="qcurve"/>
      <point x="193" y="397" type="line"/>
      <point x="195" y="339" type="line"/>
      <point x="195" y="324"/>
      <point x="175" y="324" type="qcurve"/>
      <point x="164" y="324"/>
      <point x="137" y="335"/>
      <point x="137" y="348" type="qcurve"/>
      <point x="138" y="398" type="line"/>
      <point x="138" y="639" type="line"/>
      <point x="135" y="639"/>
      <point x="115" y="663"/>
      <point x="115" y="673" type="qcurve"/>
      <point x="115" y="686"/>
      <point x="128" y="689" type="qcurve"/>
      <point x="212" y="705"/>
      <point x="242" y="705"/>
      <point x="255" y="705" type="qcurve"/>
      <point x="393" y="705"/>
      <point x="393" y="611" type="qcurve"/>
      <point x="393" y="565"/>
      <point x="362" y="536" type="qcurve"/>
      <point x="313" y="490"/>
      <point x="203" y="490" type="qcurve"/>
      <point x="196" y="490"/>
    </contour>
  </outline>
</glyph>
<glyph name="Rmod" format="2">
  <advance width="500" height="1000"/>
  <unicode hex="1D3F"/>
  <outline>
    <contour>
      <point x="189" y="544" type="line"/>
      <point x="260" y="544"/>
      <point x="290" y="562" type="qcurve"/>
      <point x="305" y="571"/>
      <point x="324" y="596"/>
      <point x="324" y="608" type="qcurve"/>
      <point x="324" y="628"/>
      <point x="289" y="654"/>
      <point x="249" y="654" type="qcurve"/>
      <point x="208" y="654"/>
      <point x="189" y="648" type="qcurve"/>
    </contour>
    <contour>
      <point x="251" y="501" type="qcurve"/>
      <point x="272" y="477" type="line"/>
      <point x="366" y="372"/>
      <point x="422" y="350"/>
      <point x="422" y="338" type="qcurve"/>
      <point x="422" y="323"/>
      <point x="398" y="323" type="qcurve"/>
      <point x="357" y="323"/>
      <point x="302" y="368"/>
      <point x="258" y="417" type="qcurve"/>
      <point x="202" y="479"/>
      <point x="189" y="489" type="qcurve"/>
      <point x="189" y="397" type="line"/>
      <point x="190" y="339" type="line"/>
      <point x="190" y="324"/>
      <point x="171" y="324" type="qcurve"/>
      <point x="160" y="324"/>
      <point x="134" y="336"/>
      <point x="134" y="348" type="qcurve"/>
      <point x="135" y="398" type="line"/>
      <point x="135" y="638" type="line"/>
      <point x="128" y="638"/>
      <point x="116" y="659" type="qcurve"/>
      <point x="111" y="667"/>
      <point x="111" y="674" type="qcurve"/>
      <point x="111" y="686"/>
      <point x="133" y="691"/>
      <point x="159" y="694"/>
      <point x="208" y="704"/>
      <point x="253" y="704" type="qcurve"/>
      <point x="299" y="704"/>
      <point x="353" y="677"/>
      <point x="379" y="634"/>
      <point x="379" y="607" type="qcurve"/>
      <point x="379" y="580"/>
      <point x="347" y="535"/>
      <point x="292" y="504"/>
      <point x="262" y="502" type="qcurve"/>
      <point x="255" y="501"/>
    </contour>
  </outline>
</glyph>
<glyph name="Tmod" format="2">
  <advance width="500" height="1000"/>
  <unicode hex="1D40"/>
  <outline>
    <contour>
      <point x="260" y="324" type="qcurve"/>
      <point x="248" y="324"/>
      <point x="221" y="335"/>
      <point x="221" y="349" type="qcurve"/>
      <point x="222" y="393" type="line"/>
      <point x="223" y="645" type="line"/>
      <point x="170" y="642" type="line"/>
      <point x="158" y="642"/>
      <point x="135" y="638"/>
      <point x="128" y="638" type="qcurve"/>
      <point x="115" y="638"/>
      <point x="101" y="663"/>
      <point x="101" y="674" type="qcurve"/>
      <point x="101" y="692"/>
      <point x="118" y="692" type="qcurve"/>
      <point x="153" y="691" type="line"/>
      <point x="329" y="701" type="line"/>
      <point x="373" y="705" type="line"/>
      <point x="385" y="705"/>
      <point x="398" y="679"/>
      <point x="398" y="669" type="qcurve"/>
      <point x="398" y="650"/>
      <point x="382" y="650" type="qcurve"/>
      <point x="342" y="652" type="line"/>
      <point x="278" y="649" type="line"/>
      <point x="278" y="393" type="line"/>
      <point x="280" y="340" type="line"/>
      <point x="280" y="324"/>
    </contour>
  </outline>
</glyph>
<glyph name="asmallmod" format="2">
  <advance width="500" height="1000"/>
  <unicode hex="1D43"/>
  <outline>
    <contour>
      <point x="215" y="321" type="qcurve"/>
      <point x="173" y="321"/>
      <point x="123" y="377"/>
      <point x="123" y="428" type="qcurve"/>
      <point x="123" y="495"/>
      <point x="165" y="545" type="qcurve"/>
      <point x="183" y="568"/>
      <point x="232" y="595"/>
      <point x="258" y="595" type="qcurve"/>
      <point x="292" y="595"/>
      <point x="302" y="579" type="qcurve"/>
      <point x="303" y="594"/>
      <point x="318" y="594" type="qcurve"/>
      <point x="333" y="594"/>
      <point x="362" y="584"/>
      <point x="362" y="570" type="qcurve"/>
      <point x="362" y="568" type="line"/>
      <point x="355" y="524"/>
      <point x="355" y="438" type="qcurve"/>
      <point x="355" y="389"/>
      <point x="371" y="364" type="qcurve"/>
      <point x="374" y="359"/>
      <point x="374" y="346"/>
      <point x="354" y="323"/>
      <point x="341" y="323" type="qcurve"/>
      <point x="311" y="323"/>
      <point x="306" y="363" type="qcurve"/>
      <point x="303" y="357"/>
      <point x="246" y="321"/>
    </contour>
    <contour>
      <point x="216" y="373" type="qcurve"/>
      <point x="234" y="373"/>
      <point x="253" y="387" type="qcurve"/>
      <point x="300" y="421"/>
      <point x="301" y="504" type="qcurve"/>
      <point x="301" y="515" type="line"/>
      <point x="296" y="515"/>
      <point x="291" y="522" type="qcurve"/>
      <point x="278" y="544"/>
      <point x="230" y="544"/>
      <point x="179" y="479"/>
      <point x="179" y="431" type="qcurve"/>
      <point x="179" y="373"/>
    </contour>
  </outline>
</glyph>
<glyph name="bsmallmod" format="2">
  <advance width="500" height="1000"/>
  <unicode hex="1D47"/>
  <outline>
    <contour>
      <point x="196" y="399" type="line"/>
      <point x="204" y="395"/>
      <point x="211" y="386" type="qcurve"/>
      <point x="221" y="370"/>
      <point x="245" y="370" type="qcurve"/>
      <point x="271" y="370"/>
      <point x="322" y="428"/>
      <point x="322" y="476" type="qcurve"/>
      <point x="322" y="543"/>
      <point x="277" y="543" type="qcurve"/>
      <point x="263" y="543"/>
      <point x="229" y="523"/>
      <point x="200" y="481"/>
      <point x="197" y="443" type="qcurve"/>
    </contour>
    <contour>
      <point x="191" y="345" type="qcurve"/>
      <point x="188" y="339"/>
      <point x="182" y="335" type="qcurve"/>
      <point x="171" y="327"/>
      <point x="161" y="327" type="qcurve"/>
      <point x="143" y="327"/>
      <point x="143" y="347" type="qcurve"/>
      <point x="144" y="393" type="line"/>
      <point x="144" y="636" type="line"/>
      <point x="142" y="689" type="line"/>
      <point x="142" y="704"/>
      <point x="161" y="704" type="qcurve"/>
      <point x="172" y="704"/>
      <point x="199" y="694"/>
      <point x="199" y="680" type="qcurve"/>
      <point x="197" y="636" type="line"/>
      <point x="197" y="553" type="line"/>
      <point x="200" y="565"/>
      <point x="250" y="593"/>
      <point x="281" y="593" type="qcurve"/>
      <point x="322" y="593"/>
      <point x="376" y="534"/>
      <point x="376" y="483" type="qcurve"/>
      <point x="376" y="435"/>
      <point x="341" y="363"/>
      <point x="281" y="321"/>
      <point x="244" y="321" type="qcurve"/>
      <point x="221" y="321"/>
      <point x="204" y="331" type="qcurve"/>
      <point x="199" y="335"/>
    </contour>
  </outline>
</glyph>
<glyph name="esmallmod" format="2">
  <advance width="500" height="1000"/>
  <unicode hex="1D49"/>
  <outline>
    <contour>
      <point x="196" y="478" type="qcurve"/>
      <point x="249" y="478"/>
      <point x="292" y="490" type="qcurve"/>
      <point x="307" y="495"/>
      <point x="313" y="502"/>
      <point x="313" y="511" type="qcurve"/>
      <point x="313" y="544"/>
      <point x="274" y="544" type="qcurve"/>
      <point x="244" y="544"/>
      <point x="199" y="492"/>
    </contour>
    <contour>
      <point x="189" y="428" type="qcurve"/>
      <point x="190" y="403"/>
      <point x="203" y="388" type="qcurve"/>
      <point x="217" y="372"/>
      <point x="240" y="372" type="qcurve"/>
      <point x="298" y="372"/>
      <point x="334" y="411" type="qcurve"/>
      <point x="343" y="422"/>
      <point x="370" y="422"/>
      <point x="370" y="397"/>
      <point x="352" y="370"/>
      <point x="336" y="356" type="qcurve"/>
      <point x="297" y="321"/>
      <point x="237" y="321" type="qcurve"/>
      <point x="208" y="321"/>
      <point x="161" y="350"/>
      <point x="135" y="403"/>
      <point x="135" y="438" type="qcurve"/>
      <point x="135" y="440" type="line"/>
      <point x="124" y="448"/>
      <point x="124" y="461" type="qcurve"/>
      <point x="124" y="477"/>
      <point x="140" y="479" type="qcurve"/>
      <point x="146" y="513"/>
      <point x="184" y="554" type="qcurve"/>
      <point x="223" y="595"/>
      <point x="274" y="595" type="qcurve"/>
      <point x="308" y="595"/>
      <point x="329" y="582" type="qcurve"/>
      <point x="368" y="560"/>
      <point x="368" y="511" type="qcurve"/>
      <point x="368" y="492"/>
      <point x="361" y="467"/>
      <point x="336" y="451"/>
      <point x="312" y="444" type="qcurve"/>
      <point x="262" y="428"/>
    </contour>
  </outline>
</glyph>
<glyph name="gsmallmod" format="2">
  <advance width="500" height="1000"/>
  <unicode hex="1D4D"/>
  <unicode hex="1DA2"/>
  <outline>
    <contour>
      <point x="308" y="520" type="line"/>
      <point x="299" y="521"/>
      <point x="295" y="527" type="qcurve"/>
      <point x="282" y="543"/>
      <point x="253" y="543" type="qcurve"/>
      <point x="240" y="543"/>
      <point x="212" y="527"/>
      <point x="202" y="513" type="qcurve"/>
      <point x="178" y="482"/>
      <point x="178" y="446" type="qcurve"/>
      <point x="178" y="410"/>
      <point x="200" y="383"/>
      <point x="217" y="383" type="qcurve"/>
      <point x="258" y="383"/>
      <point x="287" y="416" type="qcurve"/>
      <point x="306" y="438"/>
      <point x="308" y="471" type="qcurve"/>
    </contour>
    <contour>
      <point x="307" y="575" type="qcurve"/>
      <point x="308" y="592"/>
      <point x="325" y="592" type="qcurve"/>
      <point x="336" y="592"/>
      <point x="362" y="582"/>
      <point x="362" y="569" type="qcurve"/>
      <point x="362" y="568" type="line"/>
      <point x="360" y="530"/>
      <point x="360" y="365" type="qcurve"/>
      <point x="360" y="325"/>
      <point x="323" y="270"/>
      <point x="263" y="242"/>
      <point x="227" y="242" type="qcurve"/>
      <point x="190" y="242"/>
      <point x="144" y="269"/>
      <point x="130" y="292" type="qcurve"/>
      <point x="126" y="297"/>
      <point x="126" y="305" type="qcurve"/>
      <point x="126" y="313"/>
      <point x="148" y="336"/>
      <point x="157" y="336" type="qcurve"/>
      <point x="170" y="336"/>
      <point x="174" y="325" type="qcurve"/>
      <point x="182" y="307"/>
      <point x="205" y="293"/>
      <point x="227" y="293" type="qcurve"/>
      <point x="251" y="293"/>
      <point x="287" y="311"/>
      <point x="308" y="343"/>
      <point x="308" y="380" type="qcurve"/>
      <point x="299" y="358"/>
      <point x="249" y="333"/>
      <point x="221" y="333" type="qcurve"/>
      <point x="177" y="333"/>
      <point x="124" y="391"/>
      <point x="124" y="446" type="qcurve"/>
      <point x="124" y="501"/>
      <point x="202" y="593"/>
      <point x="253" y="593" type="qcurve"/>
      <point x="276" y="593"/>
    </contour>
  </outline>
</glyph>
<glyph name="ksmallmod" format="2">
  <advance width="500" height="1000"/>
  <unicode hex="1D4F"/>
  <outline>
    <contour>
      <point x="150" y="350" type="qcurve"/>
      <point x="151" y="394" type="line"/>
      <point x="151" y="636" type="line"/>
      <point x="149" y="689" type="line"/>
      <point x="149" y="705"/>
      <point x="180" y="705"/>
      <point x="208" y="694"/>
      <point x="208" y="680" type="qcurve"/>
      <point x="206" y="636" type="line"/>
      <point x="206" y="519" type="line"/>
      <point x="282" y="572" type="line"/>
      <point x="289" y="577"/>
      <point x="300" y="588" type="qcurve"/>
      <point x="305" y="594"/>
      <point x="324" y="594"/>
      <point x="333" y="591" type="qcurve"/>
      <point x="358" y="582"/>
      <point x="358" y="567" type="qcurve"/>
      <point x="358" y="557"/>
      <point x="319" y="535"/>
      <point x="313" y="531" type="qcurve"/>
      <point x="248" y="486" type="line"/>
      <point x="253" y="481"/>
      <point x="292" y="440"/>
      <point x="332" y="399"/>
      <point x="347" y="383" type="qcurve"/>
      <point x="361" y="371"/>
      <point x="372" y="366" type="qcurve"/>
      <point x="382" y="362"/>
      <point x="382" y="343"/>
      <point x="373" y="336" type="qcurve"/>
      <point x="358" y="323"/>
      <point x="343" y="323" type="qcurve"/>
      <point x="335" y="323"/>
      <point x="328" y="328" type="qcurve"/>
      <point x="305" y="347"/>
      <point x="264" y="392" type="qcurve"/>
      <point x="224" y="437"/>
      <point x="206" y="455" type="qcurve"/>
      <point x="206" y="394" type="line"/>
      <point x="208" y="341" type="line"/>
      <point x="208" y="325"/>
      <point x="177" y="325"/>
      <point x="150" y="336"/>
    </contour>
  </outline>
</glyph>
<glyph name="msmallmod" format="2">
  <advance width="500" height="1000"/>
  <unicode hex="1D50"/>
  <outline>
    <contour>
      <point x="158" y="340" type="line"/>
      <point x="158" y="324"/>
      <point x="127" y="324"/>
      <point x="102" y="336"/>
      <point x="102" y="349" type="qcurve"/>
      <point x="103" y="393" type="line"/>
      <point x="103" y="519" type="line"/>
      <point x="102" y="577" type="line"/>
      <point x="102" y="593"/>
      <point x="133" y="593"/>
      <point x="158" y="581"/>
      <point x="158" y="563"/>
      <point x="158" y="558" type="qcurve"/>
      <point x="181" y="595"/>
      <point x="235" y="595"/>
      <point x="260" y="566" type="qcurve"/>
      <point x="260" y="567"/>
      <point x="300" y="595"/>
      <point x="350" y="595"/>
      <point x="383" y="562"/>
      <point x="397" y="514"/>
      <point x="397" y="489" type="qcurve"/>
      <point x="397" y="393" type="line"/>
      <point x="398" y="340" type="line"/>
      <point x="398" y="324"/>
      <point x="368" y="324"/>
      <point x="343" y="336"/>
      <point x="343" y="349" type="qcurve"/>
      <point x="344" y="393" type="line"/>
      <point x="344" y="487" type="line"/>
      <point x="344" y="515"/>
      <point x="331" y="543"/>
      <point x="321" y="543" type="qcurve"/>
      <point x="313" y="543"/>
      <point x="292" y="525"/>
      <point x="276" y="493"/>
      <point x="276" y="475" type="qcurve"/>
      <point x="276" y="393" type="line"/>
      <point x="278" y="340" type="line"/>
      <point x="278" y="324"/>
      <point x="247" y="324"/>
      <point x="222" y="336"/>
      <point x="222" y="349" type="qcurve"/>
      <point x="224" y="393" type="line"/>
      <point x="224" y="487" type="line"/>
      <point x="224" y="543"/>
      <point x="205" y="543" type="qcurve"/>
      <point x="190" y="543"/>
      <point x="177" y="525" type="qcurve"/>
      <point x="159" y="499"/>
      <point x="157" y="445" type="qcurve"/>
      <point x="156" y="419"/>
      <point x="156" y="393" type="qcurve"/>
    </contour>
  </outline>
</glyph>
<glyph name="osmallmod" format="2">
  <advance width="500" height="1000"/>
  <unicode hex="1D52"/>
  <outline>
    <contour>
      <point x="244" y="373" type="qcurve"/>
      <point x="265" y="373"/>
      <point x="298" y="396"/>
      <point x="319" y="437"/>
      <point x="319" y="501"/>
      <point x="291" y="543"/>
      <point x="229" y="543"/>
      <point x="183" y="482"/>
      <point x="183" y="408"/>
      <point x="214" y="373"/>
    </contour>
    <contour>
      <point x="209" y="579" type="line"/>
      <point x="231" y="595"/>
      <point x="298" y="595"/>
      <point x="323" y="578" type="qcurve"/>
      <point x="374" y="545"/>
      <point x="374" y="463" type="qcurve"/>
      <point x="374" y="408"/>
      <point x="341" y="367" type="qcurve"/>
      <point x="304" y="321"/>
      <point x="189" y="321"/>
      <point x="127" y="388"/>
      <point x="127" y="444" type="qcurve"/>
      <point x="127" y="487"/>
      <point x="153" y="533" type="qcurve"/>
      <point x="164" y="552"/>
      <point x="188" y="579"/>
      <point x="198" y="579" type="qcurve"/>
    </contour>
  </outline>
</glyph>
<glyph name="tsmallmod" format="2">
  <advance width="500" height="1000"/>
  <unicode hex="1D57"/>
  <outline>
    <contour>
      <point x="275" y="319" type="qcurve"/>
      <point x="240" y="319"/>
      <point x="208" y="359"/>
      <point x="208" y="398" type="qcurve"/>
      <point x="208" y="547" type="line"/>
      <point x="174" y="547"/>
      <point x="164" y="546" type="qcurve"/>
      <point x="151" y="546"/>
      <point x="143" y="567"/>
      <point x="143" y="575" type="qcurve"/>
      <point x="143" y="596"/>
      <point x="161" y="596" type="qcurve"/>
      <point x="208" y="596" type="line"/>
      <point x="207" y="672" type="line"/>
      <point x="207" y="685"/>
      <point x="224" y="685" type="qcurve"/>
      <point x="235" y="685"/>
      <point x="262" y="676"/>
      <point x="262" y="661" type="qcurve"/>
      <point x="261" y="595" type="line"/>
      <point x="331" y="595"/>
      <point x="353" y="597" type="qcurve"/>
      <point x="365" y="597"/>
      <point x="374" y="576"/>
      <point x="374" y="567" type="qcurve"/>
      <point x="374" y="546"/>
      <point x="357" y="546" type="qcurve"/>
      <point x="345" y="546"/>
      <point x="324" y="547"/>
      <point x="261" y="547" type="qcurve"/>
      <point x="261" y="397" type="line"/>
      <point x="261" y="379"/>
      <point x="267" y="370"/>
      <point x="281" y="370" type="qcurve"/>
      <point x="304" y="370"/>
      <point x="342" y="392" type="qcurve"/>
      <point x="354" y="400"/>
      <point x="360" y="400" type="qcurve"/>
      <point x="371" y="400"/>
      <point x="371" y="386" type="qcurve"/>
      <point x="371" y="368"/>
      <point x="304" y="319"/>
    </contour>
  </outline>
</glyph>
<glyph name="usmallmod" format="2">
  <advance width="500" height="1000"/>
  <unicode hex="1D58"/>
  <outline>
    <contour>
      <point x="225" y="321" type="qcurve"/>
      <point x="139" y="321"/>
      <point x="139" y="425" type="qcurve"/>
      <point x="139" y="524"/>
      <point x="137" y="577" type="qcurve"/>
      <point x="137" y="592"/>
      <point x="156" y="592" type="qcurve"/>
      <point x="167" y="592"/>
      <point x="194" y="581"/>
      <point x="194" y="568" type="qcurve"/>
      <point x="193" y="524" type="line"/>
      <point x="193" y="427" type="line"/>
      <point x="193" y="401"/>
      <point x="210" y="371"/>
      <point x="224" y="371" type="qcurve"/>
      <point x="240" y="371"/>
      <point x="277" y="400"/>
      <point x="306" y="459"/>
      <point x="306" y="511" type="qcurve"/>
      <point x="306" y="577" type="line"/>
      <point x="306" y="592"/>
      <point x="325" y="592" type="qcurve"/>
      <point x="337" y="592"/>
      <point x="363" y="582"/>
      <point x="363" y="569" type="qcurve"/>
      <point x="363" y="567" type="line"/>
      <point x="357" y="531"/>
      <point x="357" y="460" type="qcurve"/>
      <point x="357" y="391"/>
      <point x="376" y="360" type="qcurve"/>
      <point x="376" y="356"/>
      <point x="376" y="345"/>
      <point x="358" y="323"/>
      <point x="345" y="323" type="qcurve"/>
      <point x="326" y="323"/>
      <point x="318" y="349" type="qcurve"/>
      <point x="315" y="358"/>
      <point x="313" y="377" type="qcurve"/>
      <point x="309" y="359"/>
      <point x="258" y="321"/>
    </contour>
  </outline>
</glyph>
<glyph name="vsmallmod" format="2">
  <advance width="500" height="1000"/>
  <unicode hex="1D5B"/>
  <outline>
    <contour>
      <point x="251" y="321" type="qcurve"/>
      <point x="237" y="321"/>
      <point x="226" y="333" type="qcurve"/>
      <point x="220" y="339"/>
      <point x="217" y="350"/>
      <point x="213" y="359" type="qcurve"/>
      <point x="149" y="531" type="line"/>
      <point x="146" y="539"/>
      <point x="132" y="568"/>
      <point x="132" y="571" type="qcurve"/>
      <point x="132" y="590"/>
      <point x="168" y="590" type="qcurve"/>
      <point x="188" y="590"/>
      <point x="191" y="576" type="qcurve"/>
      <point x="195" y="558"/>
      <point x="248" y="413" type="qcurve"/>
      <point x="308" y="559"/>
      <point x="313" y="581" type="qcurve"/>
      <point x="318" y="593"/>
      <point x="333" y="593" type="qcurve"/>
      <point x="344" y="593"/>
      <point x="370" y="580"/>
      <point x="370" y="566" type="qcurve"/>
      <point x="352" y="529" type="line"/>
      <point x="281" y="361"/>
      <point x="274" y="339" type="qcurve"/>
      <point x="269" y="321"/>
    </contour>
  </outline>
</glyph>
<glyph name="rinferior" format="2">
  <advance width="500" height="1000"/>
  <unicode hex="1D63"/>
  <outline>
    <contour>
      <point x="235" y="241" type="qcurve"/>
      <point x="240" y="247"/>
      <point x="252" y="255" type="qcurve"/>
      <point x="267" y="265"/>
      <point x="291" y="265" type="qcurve"/>
      <point x="313" y="265"/>
      <point x="342" y="254"/>
      <point x="364" y="236"/>
      <point x="364" y="224" type="qcurve"/>
      <point x="364" y="214"/>
      <point x="347" y="189"/>
      <point x="337" y="189" type="qcurve"/>
      <point x="326" y="189"/>
      <point x="320" y="199" type="qcurve"/>
      <point x="317" y="205"/>
      <point x="300" y="212"/>
      <point x="295" y="212" type="qcurve"/>
      <point x="277" y="212"/>
      <point x="262" y="201" type="qcurve"/>
      <point x="239" y="185"/>
      <point x="235" y="144" type="qcurve"/>
      <point x="233" y="126"/>
      <point x="233" y="65" type="qcurve"/>
      <point x="235" y="12" type="line"/>
      <point x="235" y="-3"/>
      <point x="216" y="-3" type="qcurve"/>
      <point x="205" y="-3"/>
      <point x="179" y="7"/>
      <point x="179" y="21" type="qcurve"/>
      <point x="180" y="65" type="line"/>
      <point x="180" y="195" type="line"/>
      <point x="178" y="249" type="line"/>
      <point x="178" y="264"/>
      <point x="197" y="264" type="qcurve"/>
      <point x="208" y="264"/>
      <point x="222" y="259" type="qcurve"/>
      <point x="235" y="253"/>
    </contour>
  </outline>
</glyph>
<glyph name="uinferior" format="2">
  <advance width="500" height="1000"/>
  <unicode hex="1D64"/>
  <outline>
    <contour>
      <point x="225" y="-7" type="qcurve"/>
      <point x="139" y="-7"/>
      <point x="139" y="97" type="qcurve"/>
      <point x="139" y="196"/>
      <point x="137" y="249" type="qcurve"/>
      <point x="137" y="264"/>
      <point x="156" y="264" type="qcurve"/>
      <point x="167" y="264"/>
      <point x="194" y="253"/>
      <point x="194" y="240" type="qcurve"/>
      <point x="193" y="196" type="line"/>
      <point x="193" y="99" type="line"/>
      <point x="193" y="73"/>
      <point x="210" y="43"/>
      <point x="224" y="43" type="qcurve"/>
      <point x="240" y="43"/>
      <point x="277" y="72"/>
      <point x="306" y="131"/>
      <point x="306" y="183" type="qcurve"/>
      <point x="306" y="249" type="line"/>
      <point x="306" y="264"/>
      <point x="325" y="264" type="qcurve"/>
      <point x="337" y="264"/>
      <point x="363" y="254"/>
      <point x="363" y="241" type="qcurve"/>
      <point x="363" y="239" type="line"/>
      <point x="357" y="203"/>
      <point x="357" y="132" type="qcurve"/>
      <point x="357" y="63"/>
      <point x="376" y="32" type="qcurve"/>
      <point x="376" y="28"/>
      <point x="376" y="17"/>
      <point x="358" y="-5"/>
      <point x="345" y="-5" type="qcurve"/>
      <point x="326" y="-5"/>
      <point x="318" y="21" type="qcurve"/>
      <point x="315" y="30"/>
      <point x="314" y="39" type="qcurve"/>
      <point x="309" y="31"/>
      <point x="258" y="-7"/>
    </contour>
  </outline>
</glyph>
<glyph name="csmallmod" format="2">
  <advance width="500" height="1000"/>
  <unicode hex="1D9C"/>
  <outline>
    <contour>
      <point x="243" y="321" type="qcurve"/>
      <point x="214" y="321"/>
      <point x="166" y="348"/>
      <point x="136" y="400"/>
      <point x="136" y="435" type="qcurve"/>
      <point x="136" y="469"/>
      <point x="161" y="526"/>
      <point x="200" y="568"/>
      <point x="250" y="593"/>
      <point x="273" y="593" type="qcurve"/>
      <point x="297" y="593"/>
      <point x="329" y="579"/>
      <point x="348" y="561"/>
      <point x="357" y="545"/>
      <point x="357" y="540" type="qcurve"/>
      <point x="357" y="528"/>
      <point x="336" y="507"/>
      <point x="328" y="507" type="qcurve"/>
      <point x="316" y="507"/>
      <point x="309" y="522"/>
      <point x="303" y="533"/>
      <point x="301" y="535" type="qcurve"/>
      <point x="288" y="543"/>
      <point x="276" y="543" type="qcurve"/>
      <point x="248" y="543"/>
      <point x="190" y="480"/>
      <point x="190" y="439" type="qcurve"/>
      <point x="190" y="416"/>
      <point x="199" y="401" type="qcurve"/>
      <point x="216" y="370"/>
      <point x="247" y="370" type="qcurve"/>
      <point x="291" y="370"/>
      <point x="338" y="417" type="qcurve"/>
      <point x="348" y="427"/>
      <point x="357" y="427" type="qcurve"/>
      <point x="371" y="427"/>
      <point x="371" y="413" type="qcurve"/>
      <point x="371" y="405"/>
      <point x="355" y="377"/>
      <point x="340" y="361" type="qcurve"/>
      <point x="301" y="321"/>
    </contour>
  </outline>
</glyph>
<glyph name="fsmallmod" format="2">
  <advance width="500" height="1000"/>
  <unicode hex="1DA0"/>
  <outline>
    <contour>
      <point x="252" y="324" type="qcurve"/>
      <point x="242" y="324"/>
      <point x="215" y="334"/>
      <point x="215" y="348" type="qcurve"/>
      <point x="215" y="354"/>
      <point x="216" y="385"/>
      <point x="216" y="542" type="qcurve"/>
      <point x="175" y="542"/>
      <point x="166" y="541" type="qcurve"/>
      <point x="144" y="541"/>
      <point x="144" y="570" type="qcurve"/>
      <point x="144" y="592"/>
      <point x="163" y="592" type="qcurve"/>
      <point x="216" y="591" type="line"/>
      <point x="216" y="634" type="line"/>
      <point x="216" y="679"/>
      <point x="257" y="696" type="qcurve"/>
      <point x="274" y="704"/>
      <point x="291" y="704" type="qcurve"/>
      <point x="313" y="704"/>
      <point x="343" y="692"/>
      <point x="361" y="673"/>
      <point x="361" y="663" type="qcurve"/>
      <point x="361" y="651"/>
      <point x="346" y="630"/>
      <point x="336" y="630" type="qcurve"/>
      <point x="330" y="630"/>
      <point x="323" y="638" type="qcurve"/>
      <point x="313" y="653"/>
      <point x="291" y="653" type="qcurve"/>
      <point x="281" y="653"/>
      <point x="269" y="643"/>
      <point x="269" y="632" type="qcurve"/>
      <point x="269" y="591" type="line"/>
      <point x="316" y="591"/>
      <point x="336" y="593" type="qcurve"/>
      <point x="358" y="593"/>
      <point x="358" y="563" type="qcurve"/>
      <point x="358" y="541"/>
      <point x="340" y="541" type="qcurve"/>
      <point x="330" y="541"/>
      <point x="311" y="542"/>
      <point x="269" y="542" type="qcurve"/>
      <point x="269" y="377"/>
      <point x="271" y="348"/>
      <point x="271" y="339" type="qcurve"/>
      <point x="271" y="324"/>
    </contour>
  </outline>
</glyph>
<glyph name="zsmallmod" format="2">
  <advance width="500" height="1000"/>
  <unicode hex="1DBB"/>
  <outline>
    <contour>
      <point x="161" y="325" type="qcurve"/>
      <point x="151" y="325"/>
      <point x="136" y="347"/>
      <point x="136" y="357" type="qcurve"/>
      <point x="136" y="365"/>
      <point x="142" y="378"/>
      <point x="154" y="386"/>
      <point x="166" y="402" type="qcurve"/>
      <point x="227" y="485"/>
      <point x="273" y="535" type="qcurve"/>
      <point x="213" y="531"/>
      <point x="190" y="528" type="qcurve"/>
      <point x="171" y="528"/>
      <point x="162" y="551" type="qcurve"/>
      <point x="158" y="560"/>
      <point x="158" y="567" type="qcurve"/>
      <point x="158" y="582"/>
      <point x="172" y="582" type="qcurve"/>
      <point x="196" y="581" type="line"/>
      <point x="217" y="581"/>
      <point x="222" y="582" type="qcurve"/>
      <point x="300" y="587"/>
      <point x="318" y="590" type="qcurve"/>
      <point x="337" y="590"/>
      <point x="349" y="569" type="qcurve"/>
      <point x="355" y="561"/>
      <point x="355" y="554" type="qcurve"/>
      <point x="355" y="544"/>
      <point x="339" y="535"/>
      <point x="337" y="533" type="qcurve"/>
      <point x="262" y="447"/>
      <point x="213" y="380" type="qcurve"/>
      <point x="338" y="380" type="line"/>
      <point x="349" y="380"/>
      <point x="362" y="354"/>
      <point x="362" y="344" type="qcurve"/>
      <point x="362" y="326"/>
      <point x="347" y="326" type="qcurve"/>
      <point x="306" y="329" type="line"/>
      <point x="239" y="329" type="line"/>
      <point x="195" y="329"/>
      <point x="168" y="325"/>
    </contour>
  </outline>
</glyph>
<glyph name="Vmod" format="2">
  <advance width="500" height="1000"/>
  <unicode hex="2C7D"/>
  <outline>
    <contour>
      <point x="255" y="321" type="qcurve"/>
      <point x="243" y="321"/>
      <point x="220" y="341"/>
      <point x="205" y="388"/>
      <point x="192" y="425" type="qcurve"/>
      <point x="117" y="629"/>
      <point x="91" y="682" type="qcurve"/>
      <point x="91" y="702"/>
      <point x="120" y="702" type="qcurve"/>
      <point x="130" y="702"/>
      <point x="152" y="695"/>
      <point x="154" y="684" type="qcurve"/>
      <point x="157" y="673"/>
      <point x="201" y="558"/>
      <point x="248" y="419" type="qcurve"/>
      <point x="303" y="564"/>
      <point x="348" y="676"/>
      <point x="352" y="693" type="qcurve"/>
      <point x="357" y="705"/>
      <point x="372" y="705" type="qcurve"/>
      <point x="383" y="705"/>
      <point x="410" y="689"/>
      <point x="410" y="676" type="qcurve"/>
      <point x="410" y="671"/>
      <point x="397" y="649"/>
      <point x="391" y="636" type="qcurve"/>
      <point x="288" y="391"/>
      <point x="278" y="341" type="qcurve"/>
      <point x="274" y="321"/>
    </contour>
  </outline>
</glyph>
<glyph name="Cmod" format="2">
  <advance width="500" height="1000"/>
  <unicode hex="A7F2"/>
  <outline>
    <contour>
      <point x="253" y="321" type="qcurve"/>
      <point x="208" y="321"/>
      <point x="133" y="355"/>
      <point x="90" y="428"/>
      <point x="90" y="481" type="qcurve"/>
      <point x="90" y="532"/>
      <point x="118" y="612"/>
      <point x="170" y="672"/>
      <point x="239" y="706"/>
      <point x="279" y="706" type="qcurve"/>
      <point x="358" y="706"/>
      <point x="397" y="660" type="qcurve"/>
      <point x="400" y="654"/>
      <point x="400" y="647" type="qcurve"/>
      <point x="400" y="638"/>
      <point x="382" y="614"/>
      <point x="371" y="614" type="qcurve"/>
      <point x="360" y="614"/>
      <point x="355" y="624" type="qcurve"/>
      <point x="335" y="654"/>
      <point x="279" y="654" type="qcurve"/>
      <point x="224" y="654"/>
      <point x="146" y="560"/>
      <point x="146" y="484" type="qcurve"/>
      <point x="146" y="410"/>
      <point x="198" y="385" type="qcurve"/>
      <point x="223" y="372"/>
      <point x="250" y="372" type="qcurve"/>
      <point x="277" y="372"/>
      <point x="325" y="389"/>
      <point x="370" y="419"/>
      <point x="385" y="438" type="qcurve"/>
      <point x="394" y="450"/>
      <point x="405" y="450" type="qcurve"/>
      <point x="422" y="450"/>
      <point x="422" y="433" type="qcurve"/>
      <point x="422" y="424"/>
      <point x="414" y="410" type="qcurve"/>
      <point x="396" y="378"/>
      <point x="359" y="354" type="qcurve"/>
      <point x="311" y="321"/>
    </contour>
  </outline>
</glyph>
<glyph name="Fmod" format="2">
  <advance width="500" height="1000"/>
  <unicode hex="A7F3"/>
  <outline>
    <contour>
      <point x="148" y="552" type="qcurve"/>
      <point x="148" y="657" type="line"/>
      <point x="146" y="682" type="line"/>
      <point x="146" y="699"/>
      <point x="163" y="699" type="qcurve"/>
      <point x="172" y="699"/>
      <point x="190" y="693" type="qcurve"/>
      <point x="324" y="702" type="line"/>
      <point x="367" y="706" type="line"/>
      <point x="379" y="706"/>
      <point x="393" y="681"/>
      <point x="393" y="670" type="qcurve"/>
      <point x="393" y="652"/>
      <point x="377" y="652" type="qcurve"/>
      <point x="325" y="652"/>
      <point x="203" y="644" type="qcurve"/>
      <point x="203" y="552" type="line"/>
      <point x="296" y="558" type="line"/>
      <point x="308" y="559"/>
      <point x="333" y="562"/>
      <point x="340" y="562" type="qcurve"/>
      <point x="352" y="562"/>
      <point x="366" y="537"/>
      <point x="366" y="526" type="qcurve"/>
      <point x="366" y="508"/>
      <point x="349" y="508" type="qcurve"/>
      <point x="298" y="508"/>
      <point x="203" y="503" type="qcurve"/>
      <point x="203" y="393"/>
      <point x="204" y="340" type="qcurve"/>
      <point x="204" y="325"/>
      <point x="185" y="325" type="qcurve"/>
      <point x="174" y="325"/>
      <point x="147" y="336"/>
      <point x="147" y="349" type="qcurve"/>
      <point x="148" y="394" type="line"/>
      <point x="148" y="506" type="line"/>
      <point x="145" y="508"/>
      <point x="134" y="529"/>
      <point x="134" y="536" type="qcurve"/>
      <point x="134" y="551"/>
    </contour>
  </outline>
</glyph>
